<svg width="40" height="40" viewBox="0 0 40 40" fill="none" xmlns="http://www.w3.org/2000/svg">
<rect width="40" height="40" rx="20" fill="#4C68D5"/>
<path d="M24.4769 11.3485L18.204 7.55509C17.6119 7.19292 16.9388 7.0015 16.2532 7.00031C14.2094 7.00031 12.3348 8.71225 12.3348 11.105V25.3073L24.4769 17.9669C26.9083 16.4947 26.9083 12.82 24.4769 11.3485ZM15.8484 18.448V10.8679L22.1163 14.6567L15.8484 18.448Z" fill="white"/>
<path d="M27.8489 32.9844C27.8489 33.0273 15.9908 32.966 15.9908 32.966L14.9434 32.8425C13.2467 32.644 11.9443 31.1233 12.002 29.3346C12.002 29.2917 12.0057 29.2519 12.0081 29.2103C12.0547 28.4365 12.3261 27.6961 12.7858 27.0885C12.9725 26.8461 13.2009 26.6425 13.4592 26.4882L22.4782 21.0725C24.3414 19.9535 25.8931 19.562 26.6999 17.5341C26.9974 16.7757 27.126 15.9562 27.0757 15.1379L27.0446 14.5865L27.9651 19.9204C28.083 20.8264 27.9013 21.7537 27.4211 22.5169C27.1326 22.9785 26.7475 23.3653 26.2951 23.6479L15.8295 28.8943C15.8191 28.9006 15.809 28.9074 15.7993 28.9149C15.5127 29.1293 15.6896 29.6069 16.0403 29.5867L24.7515 29.6403C26.4433 29.5417 27.8526 31.2112 27.8489 32.9844Z" fill="white"/>
</svg>
